<?xml version="1.0" standalone="no"?>
<!DOCTYPE svg PUBLIC "-//W3C//DTD SVG 1.1//EN" "http://www.w3.org/Graphics/SVG/1.1/DTD/svg11.dtd" >
<svg xmlns="http://www.w3.org/2000/svg">
<metadata>Generated by IcoMoon</metadata>
<defs>
<font id="iot" horiz-adv-x="1024">
<font-face units-per-em="1024" ascent="960" descent="-64" />
<missing-glyph horiz-adv-x="1024" />
<glyph unicode="&#x20;" horiz-adv-x="512" d="" />
<glyph unicode="&#xe900;" glyph-name="business" d="M510.459 960.001l-462.651-243.663v-98.698h928.385v98.698zM729.447 522.025v-342.361h144.963v342.361zM47.81-63.999h928.385v144.963h-928.385zM436.436 522.025v-342.361h144.963v342.361zM143.423 522.025v-342.361h144.963v342.361h-144.963z" />
<glyph unicode="&#xe901;" glyph-name="card" d="M84.628 832h854.745c44.43 0 84.628-40.198 84.628-84.628v-598.745c0-44.43-40.198-84.628-84.628-84.628h-854.745c-44.43 0-84.628 40.198-84.628 84.628v598.745c0 44.43 40.198 84.628 84.628 84.628zM598.745 702.942v-42.314h342.744v42.314h-342.744zM598.745 618.314v-42.314h342.744v42.314h-342.744zM598.745 533.686v-42.314h298.315v42.314h-298.315zM340.629 366.545c-84.628 0-256.001-46.546-256.001-131.174v-42.314h512v42.314c2.116 84.628-169.257 131.174-256.001 131.174zM340.629 702.942c-69.818 0-129.058-57.124-129.058-129.058s59.24-126.942 129.058-126.942 129.058 57.124 129.058 129.058-57.124 126.942-129.058 126.942z" />
<glyph unicode="&#xe902;" glyph-name="cloud" d="M512 875.921c-122.98 0-230.902-70.274-283.608-173.176-128-12.549-228.392-122.98-228.392-253.491 0-140.549 115.45-255.999 255.999-255.999v-173.176h512v170.666h42.667c117.96 0 213.333 95.373 213.333 213.333 0 112.942-87.843 203.293-198.275 210.823-30.117 150.587-158.118 261.019-313.725 261.019zM341.334 406.587h341.334v-298.666h-341.334v298.666zM384 361.411v-42.667h255.999v42.667h-255.999zM384 276.078v-42.667h255.999v42.667h-255.999zM384 190.745v-42.667h255.999v42.667h-255.999z" />
<glyph unicode="&#xe903;" glyph-name="code" d="M933.53 913.396h-840.451c-52.014 0-93.079-41.065-93.079-93.079v-744.634c0-52.014 41.065-93.079 93.079-93.079h837.713c52.014 0 93.079 41.065 93.079 93.079v744.634c2.738 49.276-38.327 93.079-90.341 93.079zM468.134 494.537h-93.079v-71.178c0-52.014-41.065-93.079-93.079-93.079 52.014 0 93.079-41.065 93.079-93.079v-71.178h93.079v-93.079h-93.079c-52.014 0-93.079 41.065-93.079 93.079v24.639c0 52.014-41.065 93.079-93.079 93.079v93.079c52.014 0 93.079 41.065 93.079 93.079v24.639c0 52.014 41.065 93.079 93.079 93.079h93.079v-93.079zM840.451 283.74c-52.014 0-93.079-41.065-93.079-93.079v-24.639c0-52.014-41.065-93.079-93.079-93.079h-93.079v93.079h93.079v71.178c0 52.014 41.065 93.079 93.079 93.079-52.014 0-93.079 41.065-93.079 93.079v71.178h-93.079v93.079h93.079c52.014 0 93.079-41.065 93.079-93.079v-24.639c0-52.014 41.065-93.079 93.079-93.079v-93.079zM933.53 680.697h-840.451v139.619h837.713v-139.619z" />
<glyph unicode="&#xe904;" glyph-name="debug" d="M1.551 162.522v-114.812h341.332v114.812h-341.332zM1.551 845.188v-114.812h567.853v114.812h-567.853zM566.301-64v114.812h453.041v114.812h-453.041v114.812h-114.812v-341.332h114.812zM228.072 615.563v-114.812h-226.522v-114.812h226.522v-114.812h114.812v341.332h-114.812zM1022.445 389.043v114.812h-567.853v-114.812h567.853zM681.113 615.563h114.812v114.812h226.522v114.812h-226.522v114.812h-114.812v-344.435z" />
<glyph unicode="&#xe905;" glyph-name="doc" d="M358.848 38.098v-102.099h-102.099v102.099h102.099zM563.049 38.098v-102.099h-102.099v102.099h102.099zM767.247 38.098v-102.099h-102.099v102.099h102.099zM920.397 140.2h-816.796c-57.055 0-102.099 45.044-102.099 102.099v615.601c0 57.055 45.044 102.099 102.099 102.099h816.796c57.055 0 102.099-45.044 102.099-102.099v-612.598c0-57.055-45.044-105.102-102.099-105.102zM460.947 500.549h-102.099v-102.099h102.099v102.099zM869.346 500.549h-306.298v-102.099h306.298v102.099zM256.749 704.75h-102.099v-102.099h102.099v102.099zM869.346 704.75h-510.498v-102.099h510.498v102.099z" />
<glyph unicode="&#xe906;" glyph-name="education" d="M512 867.747l-512-279.064 512-279.064 419.748 228.325v-322.883h92.252v373.622zM184.504 392.649v-186.81l325.19-177.586 325.19 177.586v186.81l-325.19-177.586-325.19 177.586z" />
<glyph unicode="&#xe907;" glyph-name="flower" d="M54.28 396.653c0-252.333 205.387-457.72 457.72-457.72 0 252.333-205.387 457.72-457.72 457.72zM512-64.001c252.333 0 457.72 205.387 457.72 457.72-252.333 2.934-457.72-202.452-457.72-457.72zM817.146 907.186v-255.267c0-170.178-137.902-305.146-305.146-305.146s-305.146 134.968-305.146 305.146v255.267c38.143 0 76.286-5.869 111.497-20.539 29.342-11.736 52.813-29.342 73.352-49.881l123.232 123.232 123.232-123.232c20.539 20.539 46.946 38.143 73.352 49.881 32.274 14.67 67.485 20.539 105.628 20.539z" />
<glyph unicode="&#xe908;" glyph-name="hand" d="M926.584 423.079c29.451 0 54.372-9.061 67.965-29.451 20.39-20.39 29.451-43.044 29.451-67.965l-389.663-144.991-339.824 97.416v437.239h92.885l353.417-131.399c24.92-9.061 38.514-29.451 38.514-54.372 0-13.593-4.531-29.451-13.593-38.514s-24.92-20.39-43.044-20.39h-135.929l-83.823 33.983-13.593-43.044 97.416-38.514h339.824zM0 715.327h194.832v-534.655h-194.832v534.655z" />
<glyph unicode="&#xe909;" glyph-name="jigsaw" d="M901.347 472.247h-74.161v193.961c0 54.194-42.786 96.98-96.98 96.98h-193.961v74.161c0 68.458-54.194 122.652-122.652 122.652s-122.652-54.194-122.652-122.652v-74.161h-193.961c-54.194 0-96.98-42.786-96.98-96.98v-185.405h74.161c74.161 0 131.208-57.047 131.208-131.208s-57.047-131.208-131.208-131.208h-74.161v-185.405c0-54.194 42.786-96.98 96.98-96.98h185.405v74.161c0 74.161 57.047 131.208 131.208 131.208s131.208-57.047 131.208-131.208v-74.161h185.405c54.194 0 96.98 42.786 96.98 96.98v193.961h74.161c68.458 0 122.652 54.194 122.652 122.652s-57.047 122.652-122.652 122.652z" />
<glyph unicode="&#xe90a;" glyph-name="lookup" d="M654.081 509.439c125.44 0 225.28-99.84 225.28-225.28 0-43.521-12.8-87.040-35.84-120.32l153.6-156.16-66.56-71.68-156.16 153.6c-35.84-20.48-76.801-33.28-120.32-33.28-125.44 0-225.28 99.84-225.28 225.28s99.84 227.84 225.28 227.84zM654.081 407.039c-69.12 0-125.44-56.32-125.44-125.44s56.32-125.44 125.44-125.44c69.12 0 125.44 56.32 125.44 125.44s-56.32 125.44-125.44 125.44zM226.56 358.398v-99.84h102.4c7.681-76.801 40.961-148.481 92.161-199.681h-294.402c-56.32 0-99.84 46.079-99.84 99.84v701.443c0 56.32 43.521 99.84 99.84 99.84h704.003c56.32 0 99.84-46.079 99.84-99.84v-404.481c-58.881 92.161-158.72 151.041-276.482 151.041-63.999 0-122.88-17.92-174.080-51.2h-253.441v-99.84h151.041c-17.92-30.72-33.28-63.999-40.961-99.84h-110.081zM728.322 660.48v99.84h-501.762v-99.84h501.762z" />
<glyph unicode="&#xe90b;" glyph-name="mech" d="M827.459 810.153l-118.635-115.513v-9.367l118.635-118.635h174.829v-96.781h-215.414l-78.048 78.048v-124.877h-49.952c-53.074 0-96.781 43.707-96.781 96.781v121.755h-152.976c-3.122-18.731-12.487-34.341-21.854-49.952l280.975-508.879h234.146c53.074 0 96.781-43.707 96.781-96.781v-49.952h-974.048v49.952c0 53.074 43.707 96.781 96.781 96.781h321.56l-227.903 415.22c-87.415 0-165.463 62.439-187.316 146.731-28.098 103.024 37.463 212.292 140.489 237.268 103.024 28.098 209.17-34.341 237.268-140.489h152.976v121.755c0 53.074 43.707 96.781 96.781 96.781h49.952v-124.877l78.048 78.048h215.414v-96.781h-171.707zM218.679 788.299c-53.074 0-96.781-43.707-96.781-96.781s43.707-96.781 96.781-96.781 96.781 43.707 96.781 96.781-40.585 96.781-96.781 96.781z" />
<glyph unicode="&#xe90c;" glyph-name="modest" d="M764.825 550.909h-513.271v101.637h513.271zM764.825 345.091h-513.271v101.637h513.271zM612.369 139.275h-360.815v101.637h358.273zM508.191 858.362c27.95 0 50.819-22.869 50.819-50.819s-22.869-50.819-50.819-50.819c-27.95 0-50.819 22.869-50.819 50.819s22.869 50.819 50.819 50.819zM869.004 858.362h-213.439c-20.328 58.442-78.77 101.637-144.834 101.637s-121.965-43.197-144.834-101.637h-213.439c-55.901 0-101.637-45.736-101.637-101.637v-719.088c0-55.901 45.736-101.637 101.637-101.637h719.088c55.901 0 101.637 45.736 101.637 101.637v716.547c-2.541 58.442-48.277 104.178-104.178 104.178z" />
<glyph unicode="&#xe90d;" glyph-name="person" d="M512 960c139.47 0 256.917-113.779 256.917-256.917s-113.779-256.917-256.917-256.917-256.917 113.779-256.917 256.917 117.447 256.917 256.917 256.917zM512 321.376c282.609 0 510.163-113.779 510.163-256.917v-128.459h-1020.327v128.459c0 143.138 227.555 256.917 510.163 256.917z" />
<glyph unicode="&#xe90e;" glyph-name="phone" d="M940.738 831.767h-855.834c-47.546 0-84.904-39.056-84.904-84.904v-597.726c0-47.546 39.056-84.904 84.904-84.904h854.136c47.546 0 84.904 39.056 84.904 84.904v596.027c1.698 47.546-35.66 86.603-83.206 86.603zM341.314 702.713c71.319 0 127.356-57.735 127.356-127.356s-56.036-129.054-127.356-129.054-127.356 57.735-127.356 127.356 57.735 129.054 127.356 129.054zM597.724 189.892h-512.821v42.452c0 84.904 171.507 132.451 256.41 132.451s256.41-47.546 256.41-132.451v-42.452zM762.439 361.399h71.319l64.528-84.904-84.904-84.904c-56.036 42.452-96.791 101.884-115.469 171.507-8.49 27.17-11.887 56.036-11.887 84.904s5.095 57.735 11.887 84.904c18.678 69.621 61.131 127.356 115.469 171.507l84.904-84.904-64.528-84.904h-71.319c-10.188-27.17-15.283-56.036-15.283-84.904 0-32.263 6.792-61.131 15.283-88.301z" />
<glyph unicode="&#xe90f;" glyph-name="search" d="M485.517 602.481c-70.622 0-126.529-55.907-126.529-126.529s55.907-126.529 126.529-126.529 126.529 55.907 126.529 126.529-55.907 126.529-126.529 126.529zM921.011 858.482h-818.023c-55.907 0-102.989-47.081-102.989-102.989v-614.989c0-55.907 47.081-102.989 102.989-102.989h818.023c55.907 0 102.989 47.081 102.989 102.989v617.931c0 55.907-47.081 100.046-102.989 100.046zM756.23 131.676l-150.070 150.070c-35.31-23.541-76.505-35.31-120.643-35.31-126.529 0-229.518 102.989-229.518 229.518s102.989 229.518 229.518 229.518 229.518-102.989 229.518-229.518c0-44.138-14.712-85.334-35.31-123.586l150.070-147.127-73.562-73.562z" />
<glyph unicode="&#xe910;" glyph-name="shape" d="M433.924 371.425v-408.399h-408.399v408.399h408.399zM484.973 959.999l282.276-459.448h-564.55l282.276 459.448zM767.249 398.45c129.126 0 231.225-102.099 231.225-231.225s-105.102-231.225-231.225-231.225-231.225 102.099-231.225 231.225 102.099 231.225 231.225 231.225z" />
<glyph unicode="&#xe911;" glyph-name="star" d="M729.748 141.975l-217.746 129.472-217.746-129.472 55.908 247.173-191.265 164.782 253.058 20.598 97.103 232.46 97.103-232.46 253.058-20.598-188.322-164.782 58.85-247.173zM512 960c-282.482 0-512-229.518-512-512s229.518-512 512-512 512 229.518 512 512-229.518 512-512 512z" />
<glyph unicode="&#xe912;" glyph-name="thinice" d="M962.59 810.691l-65.503 26.686v-441.539l118.876 286.272c21.835 50.947-2.426 106.746-53.373 128.579zM6.733 628.739l242.604-584.676c14.556-38.817 50.947-60.65 89.764-60.65 12.13 0 26.686 2.426 38.817 7.279l361.48 150.414c36.391 14.556 58.226 50.947 60.65 87.338 0 12.13-2.426 26.686-7.279 38.817l-245.030 584.676c-14.556 38.817-50.947 60.65-89.764 60.65-12.13 0-26.686-2.426-38.817-7.279l-361.48-150.414c-46.094-19.409-70.355-75.208-50.947-126.155zM800.047 815.544c0 53.373-43.668 97.041-97.041 97.041h-70.355l169.823-410.001z" />
<glyph unicode="&#xe913;" glyph-name="tool" d="M604.531 276.562l310.49-310.49 108.979 111.036-310.49 312.546-108.979-113.092zM797.817 545.928c-20.563 0-41.124 2.056-59.631 10.281l-590.137-586.024-108.979 108.979 382.458 382.458-92.531 92.531-37.011-37.011-74.024 71.968v-148.049l-34.956-34.956-183.004 185.060 37.011 37.011h145.992l-71.968 71.968 185.060 185.060c59.631 59.631 158.33 59.631 217.96 0l-108.979-111.036 71.968-71.968-37.011-37.011 92.531-92.531 94.586 96.642c-8.224 16.45-10.281 39.068-10.281 57.574 0 102.812 80.192 183.004 180.947 183.004 30.844 0 57.574-8.224 82.249-22.618l-139.823-139.823 78.137-78.137 137.767 137.767c14.394-24.674 22.618-49.35 22.618-82.249 0-98.699-80.192-178.892-180.947-178.892z" />
<glyph unicode="&#xe914;" glyph-name="window" d="M568.54 960v-342.38h455.46v342.38zM568.54-64h455.46v568.54h-455.46zM0-64h455.46v342.38h-455.46zM0 391.46h455.46v568.54h-455.46v-568.54z" />
<glyph unicode="&#xe915;" glyph-name="brace" d="M439.338 740.891h-146.446v-146.446c0-80.489-65.957-146.446-146.446-146.446 80.489 0 146.446-65.957 146.446-146.446v-146.446h146.446v-146.446h-146.446c-80.489 0-146.446 65.957-146.446 146.446v72.664c0 80.489-65.957 146.446-146.446 146.446v147.563c80.489 0 146.446 65.957 146.446 146.446v72.664c0 80.489 65.957 146.446 146.446 146.446h146.446v-146.446zM1024 375.337c-80.489 0-146.446-65.957-146.446-146.446v-72.664c0-80.489-65.957-146.446-146.446-146.446h-146.446v146.446h146.446v146.446c0 80.489 65.957 146.446 146.446 146.446-80.489 0-146.446 65.957-146.446 146.446v145.327h-146.446v146.446h146.446c80.489 0 146.446-65.957 146.446-146.446v-72.664c0-80.489 65.957-146.446 146.446-146.446v-146.446z" />
<glyph unicode="&#xe916;" glyph-name="learn" d="M569.465 959.998c-215.080 0-388.227-167.735-399.048-378.757l-109.569-144.74c-13.527-17.585 0-45.992 24.349-45.992h85.221v-170.441c0-63.578 50.050-113.627 113.627-113.627h58.166v-170.441h399.048v266.484c135.27 63.578 227.255 200.2 227.255 359.821 0 219.139-178.557 397.696-399.048 397.696zM626.279 333.696h-113.627v56.814h113.627v-56.814zM718.262 590.71c-14.88-25.701-36.523-47.345-62.224-60.872v-81.162h-171.793v81.162c-81.162 47.345-109.569 151.503-62.224 232.665s151.503 110.921 234.019 63.578 108.217-152.856 62.224-235.371z" />
<glyph unicode="&#xe917;" glyph-name="thingsnet" d="M946.046 170.485l-415.337-234.485v183.347l258.183 142.188 157.155-91.049zM973.485 196.678v491.42l-152.166-86.061v-316.804l152.166-88.556zM79.201 170.485l415.337-234.485v183.347l-259.429 142.188-155.908-91.049zM50.515 196.678v491.42l152.166-86.061v-316.804l-152.166-88.556zM69.224 719.28l425.316 240.72v-177.11l-274.396-150.918-150.918 87.308zM956.025 719.28l-425.316 240.72v-177.11l274.396-150.918 150.918 87.308zM493.291 160.507l-254.441 140.941v276.891l254.441-147.176v-270.655zM530.709 160.507l254.441 139.693v278.138l-254.441-147.176v-270.655zM256.312 610.768l255.688 140.941 256.936-140.941-256.936-147.176-255.688 147.176z" />
<glyph unicode="&#xe918;" glyph-name="wisdom" d="M0-14.259v102.625c0 0 256.559 102.625 512 102.625s512-102.625 512-102.625v-102.625h-1024zM477.417 646.102c-61.348 199.666-373.683 153.936-373.683 153.936s10.037-399.338 302.289-337.99c-20.080 148.355-97.045 189.629-97.045 189.629 142.78 0 152.818-174.010 152.818-174.010v-235.366c15.619 0 35.693 0 51.311 0s35.693 0 51.311 0v214.169c0 0 0 199.666 153.936 250.977 0 0-102.625-153.936-102.625-256.559 359.182-35.693 359.182 456.224 359.182 456.224s-457.344 51.311-497.499-261.023z" />
</font>
</defs>
</svg>
